<svg width="199" height="120" viewBox="0 0 199 120" fill="none" xmlns="http://www.w3.org/2000/svg">
    <style>

            .floor-path{
            animation: show-floor-path 0.4s cubic-bezier(0, 0, 0.26, 1) forwards;
            transform: translateY(-100%);
            }
            .roof-path{
            transform: translateY(55px);
            animation: show-roof-path 0.4s 0.4s cubic-bezier(0, 0, 0.26, 1) forwards;
            }
            .overlap-path{
            transform: translateY(55px);
            animation: show-roof-path 0.4s 0.4s cubic-bezier(0, 0, 0.26, 1) forwards;
            }
            svg > g{
            transform: translateY(65px);
            }

        @keyframes show-floor-path{
        0% {transform: translateX(-100%);}
        100% {transform: translateX(0);}
        }
        @keyframes show-roof-path{
        0% {transform: translateY(55px);}
        100% {transform: translateY(0);}
        }
        @keyframes show-preload-char{
        0% {opacity: 0;}
        100% {opacity: 1;}
        }
    </style>
    <g class="preload-group" >
        <path class="floor-path" d="M0 54.848H198.667V47H165.334H134.334H49.834H20.334H0V54.848Z" fill="#383838"/>
        <path class="overlap-path" fill-rule="evenodd" clip-rule="evenodd" d="M194.816 4.99952L3 4.99953L3 8.4248L194.816 8.42479L194.816 4.99952Z" fill="#383838"/>
        <path class="roof-path" fill-rule="evenodd" clip-rule="evenodd" d="M 0.166 0.7402 V 54.9759 H 198.833 L 198.833 0.7406 L 0.166 0.7402 Z M 8 9 H 8 V 54.9759 H 190.965 V 9 Z" fill="#383838">
            <animate attributeName="d"
                     to="M 0 1 V 54.9759 H 198.833 L 199 -65 L 0 1 Z M 8 7 H 8 V 54.9759 H 191 V -53 Z"
                     begin="0.8s"
                     dur="0.5s"
                     fill="freeze" />
        </path>

        <g class="preload-char" opacity="0">
            <path d="M25.6467 22.5654C25.6467 18.706 23.2272 16.1479 18.6389 16.1479C16.1457 16.1479 12.2065 16.281 12 16.2957V28.7168H18.5209C22.9469 28.7168 25.6467 26.2326 25.6467 22.5654ZM22.1059 22.3732C22.1059 24.3842 20.8372 25.7298 18.2259 25.7298H15.5408V19.0609C15.585 19.0609 16.3374 19.0017 18.3881 19.0017C20.9995 19.0017 22.1059 20.4509 22.1059 22.3732Z" fill="#383838"/>
            <path d="M40.3262 22.5506C40.3262 19.5489 38.1869 16 33.3921 16C28.5974 16 26.4581 19.5489 26.4581 22.5506C26.4581 25.6115 28.5974 29.0125 33.3921 29.0125C38.1869 29.0125 40.3262 25.6115 40.3262 22.5506ZM36.8887 22.388C36.8887 24.0884 35.974 25.9812 33.3921 25.9812C30.8103 25.9812 29.8956 24.0884 29.8956 22.388C29.8956 20.791 30.8103 18.8539 33.3921 18.8539C35.974 18.8539 36.8887 20.791 36.8887 22.388Z" fill="#383838"/>
            <path d="M48.2191 22.2401L45.5931 16.2957H42.4654C42.4064 16.5619 41.1376 21.7669 41.1376 28.7168H44.7669C44.7669 25.6854 44.6931 21.0571 44.6931 20.2438C44.7226 20.4213 45.2242 22.0331 45.7406 23.2456L46.8913 25.922H49.4879L50.6239 23.2456C51.1403 22.0183 51.5533 20.3769 51.5829 20.2438C51.4501 21.0423 51.5091 25.6854 51.5091 28.7168H55.1531C55.1531 21.7669 53.8991 16.5619 53.8253 16.2957H50.7714L48.2191 22.2401Z" fill="#383838"/>
            <path d="M55.8908 28.7168H59.5791C59.6086 27.4599 59.7856 26.2326 59.8004 26.1734H65.9377C65.9525 26.2326 66.1295 27.4599 66.159 28.7168H69.9063C69.6408 22.5062 67.236 16.6063 67.1032 16.2957H58.6939C58.5611 16.6063 56.1563 22.5062 55.8908 28.7168ZM64.6394 19.194C64.6837 19.2975 65.4509 21.2789 65.6722 23.5857H60.0659C60.3168 21.2789 61.0544 19.2975 61.0987 19.194H64.6394Z" fill="#383838"/>
            <path d="M25.6467 39.8809C25.6467 37.6037 23.9944 37.1749 23.9058 37.1453C23.9649 37.1009 25.1304 36.3616 25.1304 34.6315C25.1304 31.8664 22.9174 30.9348 19.8044 30.9348C16.2784 30.9348 12.2213 31.0679 12 31.0827V43.5037H20.3208C23.5665 43.5037 25.6467 42.6756 25.6467 39.8809ZM21.7224 34.9716C21.7224 35.8884 21.1912 36.2433 20.2028 36.3616C19.8782 36.406 19.4946 36.4207 19.0668 36.4207H15.5408V33.5964C15.6145 33.5964 16.9128 33.5373 19.0668 33.5225C19.4946 33.5225 19.8782 33.5373 20.2028 33.5964C21.1912 33.7591 21.7224 34.2027 21.7224 34.9716ZM22.1355 39.7774C22.1355 40.3393 21.7371 40.6646 20.8519 40.7977C20.5569 40.842 20.2028 40.8568 19.7897 40.8568H15.5408V38.6979H19.7897C20.2028 38.6979 20.5569 38.7127 20.8519 38.7423C21.7371 38.831 22.1355 39.0972 22.1355 39.7774Z" fill="#383838"/>
            <path d="M40.3999 43.5037V40.6498H30.4415V38.7423H40.0458V35.9919H30.4415V33.8478H40.2524V31.0827H26.9007V43.5037H40.3999Z" fill="#383838"/>
            <path d="M55.758 43.5037L50.1813 36.4799L55.6252 31.0827H51.1108L46.8176 35.1934C46.0799 35.8884 45.5488 36.5538 45.3422 36.9679V31.0827H41.8015V43.5037H45.3422V40.6054L47.5257 38.4761L51.2583 43.5037H55.758Z" fill="#383838"/>
            <path d="M56.3334 43.5037H60.0217C60.0512 42.2468 60.2282 41.0195 60.243 40.9603H66.3803C66.3951 41.0195 66.5721 42.2468 66.6016 43.5037H70.3489C70.0834 37.2932 67.6786 31.3932 67.5458 31.0827H59.1365C59.0037 31.3932 56.5989 37.2932 56.3334 43.5037ZM65.082 33.9809C65.1263 34.0844 65.8935 36.0659 66.1148 38.3726H60.5085C60.7593 36.0659 61.497 34.0844 61.5413 33.9809H65.082Z" fill="#383838"></path>
            <animate attributeName="opacity"
                     values="0;1" begin="1s"
                     dur="0.5s"
                     fill="freeze"/>
        </g>

    </g>
</svg>