<svg width="102" height="18" viewBox="0 0 102 18" fill="none" xmlns="http://www.w3.org/2000/svg">
<path d="M82.1686 8.21895V7.43925H81.1974V0.779699H82.1686V0H80.3086V8.21895H82.1686Z" fill="#383838"/>
<path d="M102 8.21895V0H100.14V0.779699H101.111V7.43925H100.14V8.21895H102Z" fill="#383838"/>
<path d="M85.3588 6.75572C86.1224 6.75572 86.7211 6.42563 87.1116 5.94787L86.4261 5.33981C86.1831 5.64384 85.836 5.861 85.3588 5.861C84.6299 5.861 84.0919 5.279 84.0919 4.51458C84.0919 3.75016 84.6299 3.16816 85.3588 3.16816C85.836 3.16816 86.1831 3.38532 86.4261 3.68935L87.1116 3.08129C86.7211 2.60353 86.1224 2.27344 85.3588 2.27344C84.0919 2.27344 83.1201 3.26371 83.1201 4.51458C83.1201 5.76545 84.0919 6.75572 85.3588 6.75572Z" fill="#383838"/>
<path d="M89.4947 6.75572C90.7789 6.75572 91.7507 5.76545 91.7507 4.51458C91.7507 3.26371 90.7789 2.27344 89.4947 2.27344C88.2105 2.27344 87.2387 3.26371 87.2387 4.51458C87.2387 5.76545 88.2105 6.75572 89.4947 6.75572ZM89.4947 5.861C88.7398 5.861 88.2105 5.279 88.2105 4.51458C88.2105 3.75016 88.7398 3.16816 89.4947 3.16816C90.2583 3.16816 90.7702 3.75016 90.7702 4.51458C90.7702 5.279 90.2583 5.861 89.4947 5.861Z" fill="#383838"/>
<path d="M95.1148 6.68623H96.0693V4.12368C96.0693 4.02813 96.0606 3.93258 96.052 3.83703C96.2515 3.37664 96.5899 3.15947 96.9978 3.15947C97.5878 3.15947 97.8741 3.61986 97.8741 4.23661V6.68623H98.8286V4.12368C98.8286 3.03786 98.2386 2.27344 97.1366 2.27344C96.5466 2.27344 96.0259 2.50798 95.7136 2.91625C95.4446 2.52535 95.0194 2.27344 94.4294 2.27344C94.0215 2.27344 93.5964 2.40374 93.2927 2.74251V2.34293H92.3382V6.68623H93.2927V3.80228C93.4662 3.39401 93.8133 3.15947 94.2298 3.15947C94.8198 3.15947 95.1148 3.61986 95.1148 4.23661V6.68623Z" fill="#383838"/>
<path d="M3.39685 17.8252H6.23116L11.5536 8.81471H4.19738L8.00531 2.44672H5.171L0 11.2406H7.3346L3.39685 17.8252Z" fill="#383838"/>
<path d="M8.12927 17.8252H10.7905L12.4348 14.4029H19.3584V17.8252H21.8898V2.44672H15.5504L8.12927 17.8252ZM16.9784 4.91594H19.3584V12.2153H13.4734L16.9784 4.91594Z" fill="#383838"/>
<path d="M31.2769 17.9985C33.8949 17.9985 36.1666 17.0454 37.3134 15.7242V8.83637H31.5582L30.498 11.2189H34.8252V14.5762C34.0463 15.161 32.8347 15.5726 31.2769 15.5726C28.2262 15.5726 25.9761 13.19 25.9761 10.136C25.9761 7.08192 28.2262 4.69934 31.2769 4.69934C33.0727 4.69934 34.3492 5.34913 35.3661 6.4971L37.2268 4.91594C35.907 3.33477 33.765 2.27344 31.2769 2.27344C26.9064 2.27344 23.423 5.71735 23.423 10.136C23.423 14.5546 26.9064 17.9985 31.2769 17.9985Z" fill="#383838"/>
<path d="M39.1776 17.8252H41.6874V2.44672H39.1776V17.8252Z" fill="#383838"/>
<path d="M43.9806 17.8252H46.4904V4.80764H51.2503L47.8318 10.5042L52.5268 17.8252H55.3395L50.6012 10.4825L55.3611 2.44672H43.9806V17.8252Z" fill="#383838"/>
<path d="M62.1845 17.9985C65.3434 17.9985 68.1777 16.2224 69.4542 13.0384L71.726 17.9985L78.8659 2.44672H76.0748L71.726 12.237L69.4326 7.08192C68.1561 4.24448 65.4948 2.27344 62.1845 2.27344C57.8141 2.27344 54.3307 5.71735 54.3307 10.136C54.3307 14.5546 57.8141 17.9985 62.1845 17.9985ZM62.1845 15.5726C59.1339 15.5726 56.8837 13.19 56.8837 10.136C56.8837 7.08192 59.1339 4.69934 62.1845 4.69934C65.2136 4.69934 67.4637 7.08192 67.4637 10.136C67.4637 13.19 65.2136 15.5726 62.1845 15.5726Z" fill="#383838"/>
</svg>
