<svg width="109" height="48" viewBox="0 0 109 48" fill="none" xmlns="http://www.w3.org/2000/svg">
<path d="M25.5927 11.4581C25.5927 4.72258 21.1143 0.258064 12.6217 0.258064C8.00682 0.258064 0.715797 0.490322 0.333496 0.516129V22.1935H12.4033C20.5954 22.1935 25.5927 17.8581 25.5927 11.4581ZM19.0389 11.1226C19.0389 14.6323 16.6905 16.9806 11.8571 16.9806H6.88723V5.34193C6.96915 5.34193 8.36182 5.23871 12.1575 5.23871C16.9909 5.23871 19.0389 7.76774 19.0389 11.1226Z" fill="#383838"/>
<path d="M52.7633 11.4323C52.7633 6.19355 48.8038 0 39.9289 0C31.0541 0 27.0946 6.19355 27.0946 11.4323C27.0946 16.7742 31.0541 22.7097 39.9289 22.7097C48.8038 22.7097 52.7633 16.7742 52.7633 11.4323ZM46.4008 11.1484C46.4008 14.1161 44.7077 17.4194 39.9289 17.4194C35.1502 17.4194 33.4571 14.1161 33.4571 11.1484C33.4571 8.36129 35.1502 4.98064 39.9289 4.98064C44.7077 4.98064 46.4008 8.36129 46.4008 11.1484Z" fill="#383838"/>
<path d="M67.3727 10.8903L62.512 0.516129H56.7229C56.6137 0.980645 54.2652 10.0645 54.2652 22.1935H60.9828C60.9828 16.9032 60.8463 8.82581 60.8463 7.40645C60.9009 7.71613 61.8293 10.529 62.7851 12.6452L64.915 17.3161H69.7211L71.8238 12.6452C72.7795 10.5032 73.5441 7.63871 73.5987 7.40645C73.353 8.8 73.4622 16.9032 73.4622 22.1935H80.2071C80.2071 10.0645 77.886 0.980645 77.7494 0.516129H72.0968L67.3727 10.8903Z" fill="#383838"/>
<path d="M81.5724 22.1935H88.3992C88.4538 20 88.7815 17.8581 88.8088 17.7548H100.169C100.196 17.8581 100.524 20 100.578 22.1935H107.514C107.023 11.3548 102.572 1.05806 102.326 0.516129H86.7608C86.515 1.05806 82.064 11.3548 81.5724 22.1935ZM97.7656 5.57419C97.8475 5.75484 99.2675 9.2129 99.6771 13.2387H89.3004C89.7646 9.2129 91.13 5.75484 91.2119 5.57419H97.7656Z" fill="#383838"/>
<path d="M25.5927 41.6774C25.5927 37.7032 22.5343 36.9548 22.3704 36.9032C22.4796 36.8258 24.6369 35.5355 24.6369 32.5161C24.6369 27.6903 20.5408 26.0645 14.779 26.0645C8.25259 26.0645 0.743104 26.2968 0.333496 26.3226V48H15.7348C21.7423 48 25.5927 46.5548 25.5927 41.6774ZM18.3289 33.1097C18.3289 34.7097 17.3459 35.329 15.5163 35.5355C14.9155 35.6129 14.2056 35.6387 13.4137 35.6387H6.88723V30.7097C7.02376 30.7097 9.4268 30.6065 13.4137 30.5806C14.2056 30.5806 14.9155 30.6065 15.5163 30.7097C17.3459 30.9935 18.3289 31.7677 18.3289 33.1097ZM19.0935 41.4968C19.0935 42.4774 18.3563 43.0452 16.7178 43.2774C16.1717 43.3548 15.5163 43.3806 14.7517 43.3806H6.88723V39.6129H14.7517C15.5163 39.6129 16.1717 39.6387 16.7178 39.6903C18.3563 39.8452 19.0935 40.3097 19.0935 41.4968Z" fill="#383838"/>
<path d="M52.8999 48V43.0194H34.4675V39.6903H52.2445V34.8903H34.4675V31.1484H52.6268V26.3226H27.9138V48H52.8999Z" fill="#383838"/>
<path d="M81.3267 48L71.0045 35.7419L81.0809 26.3226H72.7249L64.7785 33.4968C63.4131 34.7097 62.4301 35.871 62.0478 36.5935V26.3226H55.4941V48H62.0478V42.9419L66.0892 39.2258L72.998 48H81.3267Z" fill="#383838"/>
<path d="M82.3917 48H89.2185C89.2731 45.8065 89.6008 43.6645 89.6281 43.5613H100.988C101.015 43.6645 101.343 45.8065 101.397 48H108.333C107.842 37.1613 103.391 26.8645 103.145 26.3226H87.58C87.3343 26.8645 82.8832 37.1613 82.3917 48ZM98.5848 31.3806C98.6667 31.5613 100.087 35.0194 100.496 39.0452H90.1196C90.5838 35.0194 91.9492 31.5613 92.0311 31.3806H98.5848Z" fill="#383838"/>
</svg>
